<?xml version="1.0" encoding="iso-8859-1"?>
<!-- Generator: Adobe Illustrator 18.0.0, SVG Export Plug-In . SVG Version: 6.00 Build 0)  -->
<!DOCTYPE svg PUBLIC "-//W3C//DTD SVG 1.1//EN" "http://www.w3.org/Graphics/SVG/1.1/DTD/svg11.dtd">
<svg version="1.1" id="Capa_1" xmlns="http://www.w3.org/2000/svg" xmlns:xlink="http://www.w3.org/1999/xlink" x="0px" y="0px"
	 viewBox="0 0 297.5 297.5" style="enable-background:new 0 0 297.5 297.5;" xml:space="preserve">
<g id="XMLID_42_">
	<g>
		<rect x="77.095" y="248.33" style="fill:#046B90;" width="143.311" height="29.15"/>
		<rect x="93.405" y="20.02" style="fill:#046B90;" width="110.689" height="12.851"/>
		<rect x="77.095" y="101.56" style="fill:#046B90;" width="143.311" height="45.46"/>
		<rect x="77.095" y="166.79" style="fill:#80AAB8;" width="143.311" height="61.77"/>
		<polygon style="fill:#80AAB8;" points="206.855,52.63 216.575,81.79 80.925,81.79 90.646,52.63 		"/>
		<path d="M240.175,91.04v196.33c0,5.45-4.43,9.88-9.89,9.88H67.205c-5.45,0-9.88-4.43-9.88-9.88V91.04
			c0.05-0.84,0.229-1.68,0.51-2.49l15.8-47.41V10.13c0-5.45,4.42-9.88,9.88-9.88h130.46c5.46,0,9.891,4.43,9.891,9.88v31.01
			l15.8,47.41C239.935,89.36,240.115,90.2,240.175,91.04z M220.405,277.48v-29.15H77.095v29.15H220.405z M220.405,228.56v-61.77
			H77.095v61.77H220.405z M220.405,147.02v-45.46H77.095v45.46H220.405z M216.575,81.79l-9.72-29.16H90.646l-9.721,29.16H216.575z
			 M204.095,32.87V20.02H93.405V32.87H204.095z"/>
	</g>
	<g>
	</g>
</g>
<g>
</g>
<g>
</g>
<g>
</g>
<g>
</g>
<g>
</g>
<g>
</g>
<g>
</g>
<g>
</g>
<g>
</g>
<g>
</g>
<g>
</g>
<g>
</g>
<g>
</g>
<g>
</g>
<g>
</g>
</svg>
